<svg width="375" height="319" viewBox="0 0 375 319" fill="none" xmlns="http://www.w3.org/2000/svg">
<path fill-rule="evenodd" clip-rule="evenodd" d="M5.33858 262.24C14.7249 213.902 109.704 241.439 171.971 226.496C234.237 211.552 307.904 141.957 356.659 176.048C405.413 210.139 353.539 292.548 241.718 311.145C129.897 329.742 -4.04777 310.577 5.33858 262.24V262.24Z" fill="#F2F2F2"/>
<g opacity="0.5">
<path fill-rule="evenodd" clip-rule="evenodd" d="M30.1461 36.4777C29.2407 37.3817 29.5924 40.5946 29.5734 41.7836C29.5443 43.6346 29.6594 45.469 29.8142 47.3133C29.9179 48.5482 30.5024 60.3326 32.1289 59.4275C33.0458 58.9176 32.471 55.5086 32.4694 54.4304C32.4656 52.0332 32.3659 49.6419 32.2061 47.2501C32.0575 45.0295 31.9642 42.8349 32.0498 40.6101C32.0706 40.0671 32.5787 34.0408 30.1461 36.4777" fill="#89C5CC"/>
<path fill-rule="evenodd" clip-rule="evenodd" d="M69.5828 35.0248C61.804 35.0867 54.0285 35.4704 46.2535 35.7055C42.5122 35.8186 38.7733 35.9625 35.036 36.1698C33.7626 36.2405 31.0312 35.8328 29.9702 36.5113C27.6149 38.0178 31.4134 38.37 32.426 38.3332C47.8127 37.7753 63.2047 37.0404 78.6045 37.0057C86.1587 36.9889 93.7092 37.204 101.264 37.1557C104.152 37.1373 107.35 35.8931 108.08 39.2546C108.903 43.0478 107.957 47.2711 107.7 51.0828C107.528 53.6272 107.589 56.1188 107.704 58.6612C107.777 60.2899 107.586 62.1251 107.873 63.7234C108.151 65.2625 109.257 66.1854 110.271 64.4615C110.877 63.4312 110.576 60.8876 110.616 59.6941C110.67 58.0867 110.619 56.4799 110.619 54.8722C110.619 50.9483 111.173 47.0398 111.1 43.1166C111.052 40.5868 110.918 36.0006 107.727 35.3928C104.214 34.7233 99.8949 35.3965 96.2992 35.3554C87.3897 35.2538 78.4952 34.9552 69.5828 35.0248" fill="#89C5CC"/>
<path fill-rule="evenodd" clip-rule="evenodd" d="M48.1446 59.5691C45.2115 59.5691 42.2781 59.5867 39.3452 59.6353C36.8298 59.6769 32.875 59.1526 30.5338 60.0526C28.9311 60.6687 28.5054 62.4581 30.5338 62.9346C32.7462 63.4547 36.0804 62.6046 38.3951 62.5637C50.002 62.3588 61.7206 62.0917 73.3112 62.8258C84.1719 63.5134 95.2419 64.1802 106.119 63.4544C107.034 63.3933 111.701 63.2076 109.571 61.458C108.329 60.4369 103.293 61.1085 101.678 61.0596C95.9827 60.8878 90.2816 60.8496 84.588 60.6338C78.9687 60.4206 73.3743 59.7887 67.7531 59.6324C61.2225 59.4507 54.6774 59.5691 48.1446 59.5691" fill="#89C5CC"/>
<path fill-rule="evenodd" clip-rule="evenodd" d="M45.209 42.8847C49.7807 43.0843 54.3037 49.7145 49.6781 52.9188C45.3387 55.9254 37.2058 52.6303 39.6189 46.8002C39.272 47.6431 40.0574 45.8844 40.0673 45.8727C40.5262 45.3321 41.3501 44.7336 41.9157 44.3075C42.5629 43.8197 43.237 43.2829 44.0174 43.0384C44.5297 42.8781 44.4492 43.4816 45.209 42.8847M42.9825 40.4934C40.8429 41.3289 39.8663 42.2713 38.3959 43.9766C37.3785 45.1568 36.0815 45.7777 36.093 47.3725C36.0954 47.7255 36.5489 48.1135 36.6272 48.4534C36.7355 48.9233 36.6101 49.5253 36.6959 50.0245C37.581 55.1759 43.7274 56.9127 48.2264 55.9401C52.1454 55.0929 55.0764 51.3309 54.1685 47.2402C53.2545 43.1222 47.148 38.8642 42.9825 40.4934" fill="#89C5CC"/>
<path fill-rule="evenodd" clip-rule="evenodd" d="M41.0759 47.6857C41.0759 49.5388 44.0032 49.5388 44.0032 47.6857C44.0032 45.8536 41.0759 45.7749 41.0759 47.6857Z" fill="#89C5CC"/>
<path fill-rule="evenodd" clip-rule="evenodd" d="M44.7382 47.3112C44.7382 48.7838 47.0641 48.7838 47.0641 47.3112C47.0641 45.8553 44.7382 45.7932 44.7382 47.3112Z" fill="#89C5CC"/>
<path fill-rule="evenodd" clip-rule="evenodd" d="M45.4601 50.3481C44.7153 50.6344 43.7705 50.0407 43.159 50.4318C42.0761 51.1251 43.1617 51.7524 43.7422 52.0309C46.3557 53.285 46.8207 49.8269 45.4601 50.3481Z" fill="#89C5CC"/>
<path fill-rule="evenodd" clip-rule="evenodd" d="M85.3737 46.2404C85.2959 46.2735 85.0185 46.3909 85.3737 46.2404ZM73.9924 44.577C72.0363 45.0186 70.3847 46.8453 68.2595 46.6009C66.6308 46.4136 65.5281 44.842 63.9203 44.6136C61.8635 44.3211 56.2659 49.013 59.2089 49.818C60.926 50.2879 61.8785 47.15 63.3954 46.9832C64.5954 46.8514 66.2273 48.323 67.4708 48.5324C69.7906 48.9233 71.3837 47.6455 73.4202 46.8215C75.633 45.9261 76.8921 46.7324 78.8166 47.7277C80.3357 48.5132 81.7663 49.0247 83.5045 48.7005C85.1358 48.3966 87.1852 46.7191 88.8272 46.8912C90.4355 47.0598 91.5834 48.7382 93.2377 48.894C93.9197 48.958 94.935 49.1904 94.8204 48.1381C94.7287 47.2954 93.7885 47.4382 93.2003 47.1319C91.6876 46.3442 90.2728 44.949 88.4471 45.068C87.074 45.1576 85.8238 46.1225 84.5583 46.5841C80.4137 48.0956 78.0838 43.6594 73.9924 44.577" fill="#89C5CC"/>
<path fill-rule="evenodd" clip-rule="evenodd" d="M77.4536 71.2691C69.4589 71.3425 61.4372 71.4612 53.465 72.1021C51.575 72.254 32.276 74.0761 32.3126 74.2074C32.3802 74.4502 34.8625 74.8211 34.847 74.8785C34.6797 74.4636 34.2972 74.2917 33.6999 74.3635C52.0034 74.3635 70.2489 72.7246 88.5764 73.0195C93.1815 73.0934 97.8039 73.0624 102.406 73.2076C103.555 73.2439 106.401 74.0673 107.304 73.5486C109.671 72.187 105.37 72.0298 104.657 71.9727C95.6378 71.2512 86.4983 71.1789 77.4536 71.2691" fill="#69A1AC"/>
<path fill-rule="evenodd" clip-rule="evenodd" d="M29.9438 75.1532C28.7487 76.3515 29.8492 80.6624 29.8963 82.2826C29.9644 84.625 29.9083 86.984 30.1138 89.3204C30.3484 91.9892 30.7124 94.8325 31.4127 97.4218C31.7983 98.8482 33.152 101.115 33.6883 98.5232C34.0713 96.672 33.4898 94.2161 33.2874 92.3302C33.0167 89.8073 32.9512 87.3176 32.9411 84.7825C32.932 82.5734 32.8895 80.3553 32.7083 78.1531C32.6142 77.0098 32.0391 73.069 29.9438 75.1532" fill="#69A1AC"/>
<path fill-rule="evenodd" clip-rule="evenodd" d="M60.0131 97.1064C54.3398 97.2038 48.6542 97.3375 42.9905 97.6918C40.6692 97.8372 38.3497 98.0536 36.0368 98.2991C35.5649 98.349 30.3411 98.5611 32.6753 100.489C33.7288 101.359 38.0626 100.156 39.494 100.031C41.9015 99.8195 44.3084 99.6823 46.7228 99.5801C52.317 99.3426 57.9283 99.1329 63.5281 99.2301C73.7549 99.4075 83.9159 99.4867 94.1457 99.2586C95.599 99.2263 106.985 99.5305 107.372 98.0184C107.684 96.7998 103.612 97.3588 102.869 97.3809C100.146 97.4623 97.422 97.4434 94.6973 97.4295C83.1553 97.3703 71.5463 96.9113 60.0131 97.1064" fill="#69A1AC"/>
<path fill-rule="evenodd" clip-rule="evenodd" d="M105.444 73.1308C105.625 78.1821 106.485 83.2275 106.76 88.294C106.886 90.6101 107.034 92.924 107.147 95.2409C107.184 95.9882 106.882 97.7891 107.766 98.2189C108.978 98.8086 109.142 97.6204 109.369 96.8167C110.024 94.4953 109.581 91.4799 109.521 89.0956C109.464 86.7864 109.46 84.4733 109.289 82.1685C109.115 79.8137 108.641 77.5035 108.421 75.1571C108.328 74.1647 108.653 72.5133 107.6 71.8975C106.689 71.3652 105.405 72.036 105.444 73.1308" fill="#69A1AC"/>
<path fill-rule="evenodd" clip-rule="evenodd" d="M49.6819 81.5339C49.7035 81.5505 49.7249 81.5673 49.7463 81.5841C49.7249 81.5673 49.7033 81.5507 49.6819 81.5339ZM44.8606 80.0373C46.6584 80.5509 48.135 80.3594 49.8524 81.6681C51.2761 82.7533 52.7364 84.341 53.2086 86.0956C54.2995 90.1495 50.601 92.3711 47.1336 92.4149C43.5821 92.4594 38.3252 91.6357 38.5072 87.0834C38.6467 83.5858 41.2006 80.1731 44.8606 80.0373M44.9873 77.7463C40.3253 77.9785 36.5648 83.2139 36.6051 87.6208C36.6538 92.9619 42.7057 94.3379 47.0048 94.375C51.8568 94.4166 56.6952 91.0663 55.395 85.61C54.3532 81.2383 49.4705 77.5134 44.9873 77.7463" fill="#69A1AC"/>
<path fill-rule="evenodd" clip-rule="evenodd" d="M40.2964 84.9164C40.2964 86.4059 42.6496 86.4059 42.6496 84.9164C42.6496 83.4441 40.2964 83.3808 40.2964 84.9164Z" fill="#69A1AC"/>
<path fill-rule="evenodd" clip-rule="evenodd" d="M45.2337 84.263C45.2337 85.7642 47.6056 85.7642 47.6056 84.263C47.6056 82.7789 45.2337 82.7152 45.2337 84.263Z" fill="#69A1AC"/>
<path fill-rule="evenodd" clip-rule="evenodd" d="M42.5118 87.6612C40.9801 89.1904 46.3608 91.8712 47.6297 89.7438C48.672 87.9966 46.4027 88.5759 45.5983 88.4815C44.7241 88.3785 43.2253 86.9496 42.5118 87.6612Z" fill="#69A1AC"/>
<path fill-rule="evenodd" clip-rule="evenodd" d="M85.531 84.2935C85.3835 84.3554 85.3835 84.3554 85.531 84.2935ZM65.3252 81.804C63.7743 82.0949 58.6847 83.8119 58.616 85.6519C58.4904 88.9963 63.475 85.5708 64.5573 85.1308C67.4977 83.936 69.0427 86.3734 71.9964 86.502C74.5618 86.6138 76.9206 84.4184 79.3371 84.678C81.8691 84.9499 83.087 87.6435 86.0099 86.2133C87.5563 85.4569 87.5173 84.2906 85.7814 84.1806C84.7322 84.1142 84.0114 84.5478 82.9175 84.0963C81.2068 83.3908 80.5178 82.2419 78.4707 82.4244C76.9259 82.5621 75.5298 83.4327 74.0219 83.7697C70.5693 84.5411 68.6541 81.1804 65.3252 81.804" fill="#69A1AC"/>
<path fill-rule="evenodd" clip-rule="evenodd" d="M97.4428 85.7471C97.3362 85.7919 97.3362 85.7919 97.4428 85.7471ZM97.8341 84.3545C97.8512 84.362 97.9683 84.5242 97.8341 84.3545ZM96.0563 83.2915C95.9895 83.343 95.9895 83.343 96.0563 83.2915ZM96.0951 83.2784C96.4398 83.4847 99.2115 85.3799 97.1983 85.8263C96.1763 86.0529 95.3307 83.9964 96.0951 83.2784ZM95.1773 81.1788C90.7374 83.2032 95.5151 90.4475 98.9996 87.5041C100.466 86.2655 100.659 83.7622 99.2324 82.4718C98.3777 81.6985 96.3375 80.6488 95.1773 81.1788Z" fill="#69A1AC"/>
<path fill-rule="evenodd" clip-rule="evenodd" d="M53.4988 109.726C47.9586 109.728 42.3698 109.611 36.837 109.94C35.9059 109.995 32.3589 109.818 31.8792 110.791C31.0015 112.572 34.6512 111.688 35.1814 111.634C46.1977 110.532 57.7051 111.166 68.7577 111.48C77.7971 111.737 86.7881 111.897 95.8168 112.363C98.19 112.485 100.561 112.621 102.933 112.764C103.706 112.81 105.651 113.323 105.814 112.088C105.965 110.945 103.538 111.203 102.932 111.171C98.1112 110.918 93.2936 110.652 88.4742 110.381C76.874 109.727 65.1175 109.724 53.4988 109.726" fill="#89C5CC"/>
<path fill-rule="evenodd" clip-rule="evenodd" d="M31.7017 111.704C30.6669 112.733 31.152 116.661 31.1231 117.959C31.0726 120.23 30.9654 122.499 30.9173 124.769C30.8674 127.142 30.9369 129.525 31.0772 131.894C31.136 132.889 31.9524 137.697 33.2379 134.946C33.8123 133.716 33.224 130.292 33.2328 128.898C33.2486 126.363 33.3852 123.838 33.5113 121.306C33.6198 119.13 33.6238 116.951 33.719 114.774C33.7492 114.08 33.8312 109.568 31.7017 111.704" fill="#89C5CC"/>
<path fill-rule="evenodd" clip-rule="evenodd" d="M106.746 131.989C101.355 132.541 95.8765 132.28 90.4643 132.688C85.7999 133.04 81.1398 133.184 76.4633 133.283C65.8739 133.506 55.2665 133.724 44.7078 134.607C42.3014 134.808 39.898 135.021 37.4852 135.129C36.2786 135.183 31.2152 134.634 30.8381 135.906C30.1958 138.072 35.6107 137.215 36.7786 137.181C39.3469 137.107 41.9032 136.921 44.4643 136.726C55.2304 135.906 66.0377 135.66 76.8268 135.319C82.6947 135.134 88.5216 134.705 94.3764 134.314C97.2946 134.12 100.221 134.113 103.139 133.925C103.902 133.875 106.605 133.973 107.154 133.358C107.531 132.936 107.627 131.906 106.746 131.989Z" fill="#89C5CC"/>
<path fill-rule="evenodd" clip-rule="evenodd" d="M104.918 112.073C105.103 117.244 105.395 122.41 105.57 127.58C105.623 129.135 105.153 131.922 106.019 133.293C107.411 135.498 108.497 133.164 108.752 131.79C109.557 127.454 108.692 122.664 108.467 118.301C108.382 116.637 108.899 112.932 108.094 111.442C107.328 110.023 104.85 110.166 104.918 112.073Z" fill="#89C5CC"/>
<path fill-rule="evenodd" clip-rule="evenodd" d="M95.8668 119.439C97.9324 119.998 98.2342 124.489 95.9034 124.821C92.4342 125.316 93.9514 120.365 95.8668 119.439ZM95.2882 117.653C94.658 117.633 93.2036 117.459 92.8153 117.972C92.4903 118.402 92.8188 119.307 92.7808 119.716C92.6442 121.177 91.4563 122.02 91.9873 123.746C92.3479 124.916 93.3132 126.016 94.4897 126.423C100.698 128.569 100.622 116.573 95.2882 117.653" fill="#89C5CC"/>
<path fill-rule="evenodd" clip-rule="evenodd" d="M39.2389 118.457C39.2234 118.477 39.2079 118.497 39.1926 118.516C39.2079 118.497 39.2234 118.477 39.2389 118.457ZM44.1149 115.863C44.0906 115.655 44.0663 115.447 44.042 115.239C47.4081 116.828 50.0865 119.784 48.9688 123.751C48.116 126.778 45.0348 127.851 42.1643 127.104C38.9866 126.277 37.468 123.658 38.3249 120.441C38.7201 118.957 39.934 116.963 41.5031 116.486C42.2335 116.264 43.8488 116.83 44.1149 115.863M42.1466 114.606C41.2951 114.664 40.4664 115.019 39.7715 115.504C40.422 114.953 41.289 114.626 42.1466 114.606ZM42.1709 112.652C40.0676 112.716 38.6894 113.989 37.4418 115.518C37.0503 115.998 35.7266 117.271 35.8904 117.918C36.02 118.429 36.3592 119.177 37.0733 118.607C33.3331 126.061 42.9954 132.419 48.894 127.235C54.3989 122.398 48.9373 112.425 42.1709 112.652" fill="#89C5CC"/>
<path fill-rule="evenodd" clip-rule="evenodd" d="M40.2587 119.576C40.2587 120.569 41.7997 120.569 41.7997 119.576C41.7997 118.584 40.2587 118.584 40.2587 119.576Z" fill="#89C5CC"/>
<path fill-rule="evenodd" clip-rule="evenodd" d="M42.8882 119.745C42.8882 120.754 44.4541 120.754 44.4541 119.745C44.4541 118.737 42.8882 118.737 42.8882 119.745Z" fill="#89C5CC"/>
<path fill-rule="evenodd" clip-rule="evenodd" d="M44.0826 123.29C43.3501 123.349 40.6687 123.1 40.1981 123.742C39.4115 124.814 40.6668 124.852 41.2834 124.967C41.8387 125.072 44.2529 125.013 44.5931 124.52C44.8937 124.084 44.8234 123.227 44.0826 123.29Z" fill="#89C5CC"/>
<path fill-rule="evenodd" clip-rule="evenodd" d="M76.3889 120.509C76.263 120.561 76.263 120.561 76.3889 120.509ZM66.2573 119.768C64.6067 119.889 63.2087 120.839 61.6306 121.217C59.9461 121.622 59.217 120.878 57.6854 120.391C56.092 119.885 54.9586 120.085 53.6779 121.173C52.9523 121.789 51.3602 123.209 51.8138 124.304C52.8523 126.811 55.2031 122.732 56.3087 122.542C58.0336 122.247 59.5682 123.755 61.5571 123.323C63.3594 122.933 64.9587 121.695 66.8412 121.682C68.4154 121.67 69.8989 122.532 71.453 122.74C73.8254 123.059 75.3832 122.216 77.5763 121.591C79.4781 121.049 80.8117 121.764 82.6005 122.365C83.418 122.64 86.1459 123.639 85.6437 121.827C85.5018 121.315 81.9069 120.4 81.3497 120.224C79.3843 119.603 78.1397 119.845 76.2676 120.559C74.7063 121.154 73.393 121.444 71.7189 121.117C69.8746 120.756 68.1973 119.62 66.2573 119.768Z" fill="#89C5CC"/>
</g>
<g opacity="0.5">
<path fill-rule="evenodd" clip-rule="evenodd" d="M142.202 36.6734C142.469 30.9422 142.835 25.219 143.028 19.4843C143.124 16.6426 143.199 13.8006 143.271 10.9583C143.287 10.3255 143.304 9.69283 143.318 9.05995C143.365 6.90984 143.11 6.73394 145.273 6.54309C154.926 5.69105 164.617 5.40864 174.282 4.63775C185.937 3.70805 197.653 3.06608 209.342 2.77834C214.536 2.65021 219.752 2.38488 224.947 2.54638C226.098 2.58214 228.358 2.28265 228.811 3.17739C229.007 3.5639 228.596 4.89401 228.544 5.34004C228.381 6.73341 228.229 8.13157 228.135 9.53188C227.583 17.7906 227.912 26.2576 229.511 34.3911C225.76 32.2757 221.02 30.4561 216.648 30.8172C212.19 31.1853 208.855 33.7609 205.287 36.1315C203.269 37.4723 202.589 37.8249 200.575 36.526C198.84 35.4065 197.198 34.1266 195.561 32.8704C193.035 30.9317 190.651 28.8297 188.201 26.7973C183.696 23.0603 177.49 17.7412 171.269 19.3073C166.824 20.4263 162.719 22.8692 158.861 25.2601C153.13 28.8121 147.941 33.1619 142.202 36.6734M219.453 0.0012185C197.307 0.0012185 175.327 2.14812 153.243 3.30952C150.937 3.43071 148.638 3.60928 146.34 3.8311C144.809 3.97898 141.063 3.3581 140.059 4.66685C139.389 5.53997 139.965 5.67103 140.059 6.50064C140.178 7.5462 140.108 8.78501 140.077 9.89169C140.003 12.5583 139.926 15.2246 139.865 17.8915C139.636 27.9707 139.494 38.048 139.902 48.1246C139.991 50.3222 140.791 53.3649 140.353 55.5003C140.036 57.0464 138.976 57.9873 141.421 58.2729C143.827 58.5542 146.769 57.8389 149.178 57.6098C151.6 57.3792 154.022 57.1291 156.447 56.9292C166.991 56.0603 177.637 56.1917 188.208 55.9028C198.875 55.6116 209.546 55.5929 220.216 55.5871C224.681 55.5847 229.783 55.8356 234.139 54.6069C235.672 54.1745 235.919 53.9615 235.541 52.4408C235.47 52.1522 235.007 52.0457 234.871 51.5242C234.686 50.8144 234.781 49.9517 234.738 49.2128C234.597 46.7998 234.548 44.3825 234.434 41.9679C234.244 37.9335 233.549 34.0182 233.035 30.0245C232.441 25.4122 232.471 20.7292 232.459 16.0868C232.453 13.5118 232.519 10.9453 232.725 8.37741C232.858 6.73047 233.669 4.27153 233.258 2.73563C233.053 1.97088 232.718 1.36442 231.922 1.0353C231.418 0.826559 230.994 0.989919 230.495 0.937067C229.904 0.874339 229.535 0.791325 228.826 0.630901C225.792 -0.0569718 222.546 0.0012185 219.453 0.0012185" fill="#69A1AC"/>
<path fill-rule="evenodd" clip-rule="evenodd" d="M207.199 10.9671C207.197 12.5722 206.947 14.9406 207.687 16.452C208.625 18.369 209.8 17.7698 210.111 15.9683C210.289 14.9361 210.284 11.8814 209.953 10.9671C209.484 9.67306 207.199 8.79166 207.199 10.9671Z" fill="#89C5CC"/>
<path fill-rule="evenodd" clip-rule="evenodd" d="M209.889 11.5853C208.383 11.6384 203.994 11.2767 202.975 12.4883C201.226 14.5663 204.27 14.9344 205.578 14.818C207.09 14.6835 211.765 15.0118 212.778 13.7989C214.472 11.7697 211.074 11.542 209.889 11.5853Z" fill="#89C5CC"/>
<path fill-rule="evenodd" clip-rule="evenodd" d="M151.417 65.2047C158.042 66.3555 155.981 76.4555 149.713 74.1161C147.529 73.3009 144.311 70.9455 145.518 68.1703C146.419 66.0968 149.358 65.0072 151.417 65.2047M148.675 62.0643C144.367 62.7896 141.421 67.4517 142.898 71.5184C144.323 75.4417 149.728 78.3146 153.714 76.9047C157.519 75.5586 159.418 70.4958 158.135 66.7922C156.794 62.9225 152.428 61.4325 148.675 62.0643" fill="#89C5CC"/>
<path fill-rule="evenodd" clip-rule="evenodd" d="M188.966 66.3868C187.317 66.5238 185.892 67.6785 184.232 67.883C182.68 68.0741 181.394 67.5432 179.942 67.1187C178.185 66.606 176.575 66.3804 174.78 66.8361C173.408 67.1844 172.056 68.1176 170.631 68.2302C167.828 68.4515 164.57 65.2532 162.381 68.8706C161.332 70.6048 162.856 71.7219 164.425 70.9131C166.061 70.0702 165.258 69.7683 167.287 70.2663C168.98 70.6814 170.349 70.907 172.045 70.3251C173.581 69.7982 174.93 68.8337 176.6 68.7254C178.235 68.6194 179.657 69.3641 181.22 69.6855C183.142 70.0806 184.843 69.7816 186.664 69.1791C188.396 68.6061 189.087 68.2927 190.835 68.8038C191.942 69.1276 194.36 70.1561 195.437 69.3273C197.3 67.8944 194.806 67.6849 193.824 67.4812C192.243 67.1537 190.607 66.2526 188.966 66.3868" fill="#89C5CC"/>
<path fill-rule="evenodd" clip-rule="evenodd" d="M226.711 65.4248C226.724 65.435 226.737 65.4451 226.75 65.4552C226.737 65.4451 226.724 65.435 226.711 65.4248ZM225.092 65.0861C227.5 65.2412 230.104 69.6273 226.913 69.7829C224.667 69.8927 222.155 66.0518 225.092 65.0861ZM224.754 61.497C217.14 63.623 220.621 74.357 227.965 73.1171C231.3 72.5539 232.431 68.6893 231.328 65.8287C230.855 64.6 229.931 63.5641 228.828 62.857C228.014 62.3354 225.684 61.2378 224.754 61.497" fill="#89C5CC"/>
<path fill-rule="evenodd" clip-rule="evenodd" d="M142.882 130.1C142.657 129.101 142.779 127.574 142.766 127.221C142.708 125.566 142.687 123.911 142.623 122.257C142.472 118.315 142.371 114.35 142.067 110.417C141.777 106.657 141.044 103.011 141.022 99.2236C141.008 96.6619 140.296 90.171 142.54 88.4309C146.396 86.181 144.871 94.1191 144.808 95.493C144.617 99.6293 144.875 103.583 145.292 107.693C145.673 111.461 145.234 115.211 145.088 118.978C145.01 120.978 144.968 122.975 144.817 124.972C144.771 125.595 144.843 128.4 144.516 129.895C145.357 129.859 146.156 129.896 146.603 129.883C149.726 129.788 152.85 129.706 155.973 129.588C167.986 129.136 180.006 129.341 192.017 128.77C203.378 128.23 214.78 128.116 226.15 127.976C227.144 128.063 227.589 129.107 226.951 129.909C226.326 130.694 223.43 130.522 222.528 130.595C219.326 130.852 216.13 130.968 212.918 130.999C206.154 131.063 199.416 131.353 192.663 131.738C180.666 132.422 168.65 132.365 156.646 132.854C153.732 132.972 150.818 133.061 147.903 133.137C146.366 133.177 142.34 134.103 141.578 132.267C141.041 130.969 141.788 130.371 142.882 130.1V130.1ZM209.338 83.3826C212.973 83.349 216.588 83.4125 220.217 83.6207C221.827 83.713 223.436 83.8022 225.046 83.8703C225.977 83.9098 228.103 83.6047 228.919 84.0363C232.123 85.7313 225.595 85.9171 224.802 85.9037C221.472 85.8477 218.149 85.5885 214.819 85.5068C202.573 85.206 190.235 85.9512 178 86.4531C172.114 86.6946 166.231 86.7291 160.347 87.0595C157.132 87.2402 153.917 87.4468 150.701 87.6163C149.218 87.6945 147.735 87.7703 146.25 87.8077C145.336 87.8309 143.473 88.2097 142.628 87.864C141.908 87.5696 141.326 87.158 141.721 86.2857C142.147 85.3469 144.002 85.7465 144.787 85.7313C147.622 85.6763 150.45 85.5172 153.279 85.344C159.703 84.9508 166.113 84.4909 172.55 84.3812C184.816 84.1719 197.066 83.4963 209.338 83.3826V83.3826ZM226.212 87.5629C226.214 85.8809 228.231 85.5427 229.125 86.6865C229.981 87.7807 229.43 91.0932 229.451 92.4023C229.52 96.7158 229.928 101.005 230.315 105.298C230.7 109.557 230.972 113.817 231.268 118.083C231.406 120.054 232.921 127.922 230.719 129.07C227.909 130.536 228.439 123.078 228.36 121.719C228.107 117.343 227.79 112.961 227.394 108.596C226.754 101.539 226.206 94.6482 226.212 87.5629Z" fill="#69A1AC"/>
<path fill-rule="evenodd" clip-rule="evenodd" d="M189.096 107.819C192.949 109.189 196.781 110.619 200.595 112.093C202.636 112.882 204.667 113.696 206.703 114.496C207.723 114.896 211.965 115.902 212.209 116.92C212.553 118.358 208.032 116.592 207.312 116.362C205.28 115.712 203.274 114.985 201.267 114.262C196.777 112.644 192.306 110.976 187.798 109.407C187.377 109.26 186.955 109.114 186.533 108.968C181.748 111.118 176.973 113.287 172.213 115.492C169.661 116.674 167.123 117.883 164.592 119.109C162.715 120.018 159.318 122.611 157.251 122.565C156.469 122.548 155.942 122.38 155.86 121.432C155.756 120.22 157.709 119.722 158.498 119.327C161.204 117.974 163.926 116.655 166.656 115.353C172.078 112.767 177.551 110.284 183.044 107.85C183.075 107.836 183.107 107.822 183.139 107.808C180.092 106.777 177.038 105.771 173.976 104.786C172.227 104.223 159.96 101.196 160.408 99.5706C160.91 97.7491 171.774 102.044 173.445 102.576C177.559 103.888 181.662 105.236 185.743 106.645C195.537 102.245 205.434 97.5569 215.65 94.3554C216.293 94.1541 216.7 94.8174 216.554 95.374C216.359 96.119 214.067 96.722 213.431 97.006C210.915 98.1295 208.387 99.2252 205.871 100.35C200.39 102.799 194.898 105.225 189.418 107.675C189.311 107.723 189.203 107.771 189.096 107.819Z" fill="#89C5CC"/>
<path fill-rule="evenodd" clip-rule="evenodd" d="M152.87 138.629C155.375 139.068 157.141 141.471 156.867 143.987C156.495 147.388 153.106 148.946 149.976 148.502C146.424 147.999 145.676 144.996 147.397 142.107C147.778 141.467 148.217 140.702 148.909 140.365C149.385 140.134 149.992 140.339 150.376 140.152C151.72 139.498 150.912 138.455 152.87 138.629ZM151.729 136.408C148.672 136.798 143.025 140.335 143.311 143.874C143.559 144.285 143.932 144.452 144.43 144.378C144.31 145.145 144.349 145.903 144.547 146.653C144.837 147.627 145.416 148.426 146.193 149.06C147.791 150.366 149.976 150.687 151.967 150.458C155.683 150.03 158.613 147.49 158.821 143.625C159.025 139.851 155.731 135.902 151.729 136.408" fill="#89C5CC"/>
<path fill-rule="evenodd" clip-rule="evenodd" d="M166.534 141.014C165.162 141.741 162.993 142.857 162.189 144.238C161.339 145.696 162.219 147.291 164.009 146.601C165.43 146.054 166.334 144.314 167.85 143.756C169.188 143.264 169.727 143.515 171.141 144.005C172.598 144.51 173.871 144.998 175.446 144.874C177.425 144.718 179.14 143.571 181.077 143.31C182.708 143.09 184.054 143.724 185.616 143.977C187.429 144.27 188.614 143.584 190.31 143.226C191.463 142.983 193.496 143.972 194.338 143.602C196.23 142.771 194.228 141.754 193.181 141.418C191.417 140.852 190.331 141.351 188.653 141.82C186.831 142.33 186.044 141.947 184.303 141.479C180.779 140.532 178.057 142.821 174.717 142.405C171.625 142.02 169.775 139.298 166.534 141.014" fill="#89C5CC"/>
<path fill-rule="evenodd" clip-rule="evenodd" d="M224.149 139.321C227.54 142.501 223.73 147.024 219.991 144.483C218.675 143.589 218.654 142.152 219.678 140.867C220.615 139.691 222.673 139.233 224.149 139.321ZM222.892 136.751C219.723 137.368 216.734 138.822 216.447 142.479C216.167 146.047 219.827 147.704 222.902 147.47C229.804 146.944 229.305 135.512 222.892 136.751Z" fill="#89C5CC"/>
</g>
<path opacity="0.5" fill-rule="evenodd" clip-rule="evenodd" d="M297.947 18.2502C295.413 18.2992 289.154 19.2211 288.224 22.2192C287.517 24.4951 289.615 23.9954 290.74 23.1673C292.261 22.0474 293.595 21.3772 295.48 21.0365C302.66 19.7378 309.559 24.395 316.67 24.984C319.364 25.2071 322.615 25.3525 325.186 24.4801C327.018 23.8589 327.257 22.5044 325.167 22.298C323.391 22.1228 321.426 22.6752 319.605 22.6595C312.071 22.595 305.374 18.1086 297.947 18.2502" fill="#C1DEE2"/>
<g opacity="0.5">
<path fill-rule="evenodd" clip-rule="evenodd" d="M31.6435 160.635C26.7943 160.69 21.9474 160.869 17.1078 161.175C12.5055 161.467 7.51189 161.245 2.98454 162.137C1.69898 162.391 -0.037612 163.562 1.67176 164.851C2.87325 165.757 7.26903 164.715 8.70378 164.627C13.9875 164.302 19.2738 163.913 24.565 163.726C29.5741 163.549 34.5829 163.487 39.5944 163.437C40.3595 163.429 41.6296 163.184 42.3915 163.406C43.4863 163.725 43.2266 163.812 43.3085 165.202C43.4572 167.719 43.4161 170.246 43.3662 172.767C43.3179 175.205 43.2277 177.644 43.2365 180.084C43.2426 181.825 42.6862 185.284 43.5597 186.795C44.8169 188.971 46.1212 186.608 46.2151 185.162C46.395 182.396 46.3144 179.597 46.3152 176.828C46.3157 174.228 46.3344 171.629 46.2429 169.031C46.1764 167.154 46.4446 163.879 45.4337 162.172C44.4041 160.435 41.925 160.81 40.1161 160.727C37.2944 160.597 34.4676 160.606 31.6435 160.635" fill="#89C5CC"/>
<path fill-rule="evenodd" clip-rule="evenodd" d="M0.790476 163.771C0.795814 168.655 0.230828 173.506 0.0725677 178.384C-2.37769e-05 180.627 -0.147342 183.089 0.420046 185.291C0.992772 187.514 2.81183 187.996 3.02133 185.514C3.44567 180.489 3.34159 175.277 3.67198 170.212C3.78861 168.423 4.54762 165.145 3.83905 163.47C3.21508 161.995 0.787807 161.712 0.790476 163.771" fill="#89C5CC"/>
<path fill-rule="evenodd" clip-rule="evenodd" d="M46.2625 185.298C37.8411 186.412 29.0372 186.006 20.5558 186.181C16.4867 186.265 12.4183 186.271 8.34869 186.313C6.92836 186.328 3.32147 185.788 2.09276 186.586C0.136794 187.857 2.25902 188.838 3.55393 188.866C11.5851 189.042 19.7058 188.672 27.7354 188.409C31.3431 188.291 34.9625 188.233 38.5606 187.926C40.7757 187.737 43.1963 187.554 45.3473 186.959C45.8056 186.832 46.8034 186.859 46.9062 186.233C46.9694 185.847 46.8547 185.216 46.2625 185.298" fill="#89C5CC"/>
<path fill-rule="evenodd" clip-rule="evenodd" d="M11.245 192.397C8.90441 192.411 1.8513 191.324 0.881988 193.606C-0.410246 196.65 4.63086 195.939 5.98661 195.904C9.06587 195.825 12.143 195.817 15.2231 195.818C18.2452 195.82 21.2671 195.8 24.2887 195.728C25.1641 195.707 27.2017 196.071 27.7053 195.016C28.088 194.215 27.7857 193.583 27.0798 193.159C25.3813 192.138 20.969 192.73 18.9805 192.638C16.4059 192.52 13.8227 192.397 11.245 192.397" fill="#89C5CC"/>
<path fill-rule="evenodd" clip-rule="evenodd" d="M39.7189 192.96C38.3813 193.04 35.6757 192.489 34.4774 193.101C33.1155 193.796 33.5953 194.886 34.7712 195.365C35.5855 195.696 38.9257 195.522 39.7189 195.138C40.5457 194.738 41.4806 192.852 39.7189 192.96Z" fill="#89C5CC"/>
<path fill-rule="evenodd" clip-rule="evenodd" d="M54.3821 164.25C52.9535 164.642 53.3869 172.753 53.3501 174.038C53.2492 177.561 52.8532 181.992 54.0237 185.384C54.7702 187.547 56.2039 187.254 55.9597 184.977C55.7451 182.978 55.3771 181.003 55.2177 178.991C54.8574 174.44 54.3672 169.585 54.7075 165.03C54.8524 165.294 56.2076 167.749 56.5265 167.566C56.4302 167.623 54.9634 164.097 54.3821 164.25" fill="#89C5CC"/>
<path fill-rule="evenodd" clip-rule="evenodd" d="M70.4528 161.263C67.5617 161.305 64.6706 161.357 61.7802 161.437C59.4821 161.501 55.871 161.123 53.7634 162.09C51.2539 163.241 52.4445 165.805 54.8016 165.86C56.8867 165.908 59.1104 165.437 61.2145 165.365C66.8977 165.171 72.591 165.129 78.2769 165.081C83.4192 165.036 88.78 165.585 93.8772 164.813C94.6332 171.526 92.5884 178.268 93.2839 185.058C93.3917 186.112 93.3434 187.602 94.6856 187.842C96.3794 188.145 96.4491 186.467 96.5134 185.266C96.6968 181.835 96.5975 178.402 96.8486 174.968C97.0813 171.785 97.5396 168.531 97.1523 165.343C96.6762 161.42 94.7963 161.735 91.4731 161.571C84.4544 161.227 77.4792 161.16 70.4528 161.263" fill="#89C5CC"/>
<path fill-rule="evenodd" clip-rule="evenodd" d="M60.7648 185.101C59.2917 185.138 56.8449 184.684 55.901 186.097C54.9188 187.566 56.084 188.848 57.5121 189.15C59.2025 189.507 61.4067 189.018 63.1612 189.012C64.9882 189.007 66.8158 189.027 68.6429 189.034C76.4761 189.065 84.3429 189.184 92.1705 188.86C93.2636 188.815 96.3661 189.181 97.1227 188.133C97.7942 187.203 97.3245 186.368 96.4403 185.895C94.9895 185.117 92.0098 185.413 90.3963 185.351C88.4035 185.275 86.4083 185.251 84.4144 185.22C76.5447 185.098 68.6338 184.906 60.7648 185.101" fill="#89C5CC"/>
<path fill-rule="evenodd" clip-rule="evenodd" d="M67.3908 191.896C64.4594 191.946 61.3318 191.817 58.4295 192.262C55.8776 192.653 55.5635 195.12 58.3105 195.408C60.8349 195.674 63.8955 195.178 66.4322 195.015C67.3332 194.957 68.3809 195.039 68.8127 194.043C69.2635 193.003 68.4017 192.005 67.3908 191.896" fill="#89C5CC"/>
<path fill-rule="evenodd" clip-rule="evenodd" d="M89.5515 192.155C87.9868 192.194 83.4167 191.521 82.6417 193.308C81.3516 196.283 87.5384 195.153 88.7252 195.109C90.2211 195.054 96.0511 195.928 96.0524 193.546C96.0537 191.211 90.9841 192.119 89.5515 192.155" fill="#89C5CC"/>
<path fill-rule="evenodd" clip-rule="evenodd" d="M0.536858 206.939C0.540595 212.351 0.203792 217.815 0.69752 223.213C0.901683 225.446 0.866722 229.723 2.16002 231.616C3.07809 232.96 4.35137 232.866 4.85284 231.252C5.18804 230.174 4.65188 228.017 4.5921 226.863C4.53445 225.756 4.4672 224.649 4.41596 223.541C4.28439 220.688 4.2948 217.838 4.33403 214.983C4.36765 212.534 4.95719 209.294 4.40128 206.939C3.883 204.744 0.536858 204.231 0.536858 206.939" fill="#69A1AC"/>
<path fill-rule="evenodd" clip-rule="evenodd" d="M54.9321 202.178C45.5419 202.414 36.1306 202.204 26.7487 202.668C22.1218 202.898 17.5131 203.401 12.9094 203.903C10.6476 204.149 8.38709 204.404 6.12929 204.682C5.44794 204.766 -0.213658 204.985 1.91578 207.138C2.84559 208.078 5.80449 207.096 6.9753 206.958C9.24218 206.69 11.5136 206.457 13.7837 206.217C18.1034 205.76 22.4285 205.327 26.7666 205.087C36.9836 204.521 47.2427 204.691 57.4699 204.313C60.2363 204.211 62.9946 204.138 65.7621 204.247C66.4888 204.276 71.8291 204.547 69.5104 202.575C68.4141 201.642 64.2804 202.123 62.9102 202.095C60.251 202.04 57.5902 202.112 54.9321 202.178" fill="#69A1AC"/>
<path fill-rule="evenodd" clip-rule="evenodd" d="M69.5569 230.732C69.5554 230.734 69.554 230.736 69.5525 230.739C69.0409 231.493 67.1503 231.283 66.3224 231.339C63.8028 231.51 61.3299 231.799 58.8327 232.174C53.857 232.919 48.9245 233.378 43.8949 233.502C33.9475 233.748 23.9589 233.518 14.0264 234.2C11.8265 234.351 9.66 234.61 7.49614 235.024C5.9509 235.32 2.97305 236.333 2.79237 233.781C2.57433 230.704 10.2925 230.71 12.4993 230.504C21.9749 229.623 31.6064 229.809 41.1111 229.941C45.7073 230.005 50.2949 230.145 54.8874 229.865C59.4754 229.584 64.219 229.658 68.7734 229.164C68.1868 226.89 68.2727 224.046 68.1081 221.722C67.6854 215.756 67.7985 209.769 67.5263 203.797C67.4065 201.165 70.9907 200.767 72.0537 202.896C73.1273 205.048 72.4297 209.317 72.4991 211.702C72.6597 217.225 73.6838 223.407 72.6021 228.869C72.2258 230.769 70.6234 231.767 69.5569 230.732V230.732Z" fill="#69A1AC"/>
<path fill-rule="evenodd" clip-rule="evenodd" d="M75.3322 205.723C74.0637 205.896 73.0055 206.982 73.5719 208.359C74.2852 210.093 76.4099 209.415 77.8134 209.305C82.2746 208.956 86.9324 209.654 91.3397 209.127C92.5433 208.983 94.2895 208.328 93.2089 206.71C92.3965 205.495 89.4368 205.708 88.1787 205.592C83.8758 205.194 79.6295 205.3 75.3322 205.723" fill="#C1DEE2"/>
<path fill-rule="evenodd" clip-rule="evenodd" d="M82.8619 213.288C81.1317 213.405 77.1042 213.313 76.3751 215.282C75.0674 218.813 80.1899 217.569 81.7495 217.368C83.5614 217.135 87.8325 217.76 88.7973 216.002C90.5224 212.861 84.3791 213.184 82.8619 213.288Z" fill="#C1DEE2"/>
<path fill-rule="evenodd" clip-rule="evenodd" d="M78.4136 221.039C77.5929 221.86 77.5916 223.326 78.4136 224.147C79.42 225.152 81.6127 224.944 82.9351 225.017C84.7795 225.12 90.0768 226.096 90.9927 223.924C92.2284 220.993 87.4315 221.055 85.8537 220.888C84.0301 220.696 79.9249 219.526 78.4136 221.039" fill="#C1DEE2"/>
<path fill-rule="evenodd" clip-rule="evenodd" d="M13.7582 170.88C13.7582 174.03 18.6787 174.03 18.6787 170.88C18.6787 167.746 13.7582 167.699 13.7582 170.88Z" fill="#89C5CC"/>
<path fill-rule="evenodd" clip-rule="evenodd" d="M23.0909 170.915C23.0909 174.517 28.6954 174.51 28.6954 170.915C28.6954 167.326 23.0909 167.289 23.0909 170.915Z" fill="#89C5CC"/>
<path fill-rule="evenodd" clip-rule="evenodd" d="M17.4447 175.704C14.7204 176.456 17.2301 178.764 18.4951 179.292C20.5055 180.13 23.2493 180.748 25.2603 179.491C26.0604 178.991 26.71 178.327 26.1236 177.356C25.4989 176.323 24.6435 176.782 23.6923 176.877C22.4874 176.999 21.5135 176.98 20.3499 176.594C19.4815 176.305 18.3918 175.443 17.4447 175.704" fill="#89C5CC"/>
<path fill-rule="evenodd" clip-rule="evenodd" d="M66.8616 171.078C66.8616 173.209 70.1704 173.209 70.1704 171.078C70.1704 168.947 66.8616 168.947 66.8616 171.078Z" fill="#89C5CC"/>
<path fill-rule="evenodd" clip-rule="evenodd" d="M74.1784 171.399C74.1784 173.767 77.8542 173.767 77.8542 171.399C77.8542 169.031 74.1784 169.032 74.1784 171.399Z" fill="#89C5CC"/>
<path fill-rule="evenodd" clip-rule="evenodd" d="M73.9061 176.537C71.9752 176.785 66.3907 177.352 66.0782 179.732C65.5962 183.403 71.7152 180.432 73.1118 180.143C74.8906 179.776 76.479 179.872 78.2549 179.943C79.2298 179.982 80.5266 180.14 80.4243 178.655C80.2567 176.216 75.5938 176.32 73.9061 176.537Z" fill="#89C5CC"/>
<path fill-rule="evenodd" clip-rule="evenodd" d="M25.3599 210.4C23.9603 210.773 22.1295 213.193 23.0924 214.674C24.6713 217.102 25.3676 213.373 26.0284 213.014C27.2307 212.361 28.2067 214.748 29.4631 213.496C31.4458 211.521 26.6081 210.066 25.3599 210.4Z" fill="#69A1AC"/>
<path fill-rule="evenodd" clip-rule="evenodd" d="M41.3963 208.604C39.7365 208.619 36.2327 210.969 35.9845 212.704C35.8372 213.735 36.5206 214.725 37.6319 214.739C39.1451 214.758 39.6261 212.79 40.9378 212.379C42.3528 211.935 42.1427 212.957 43.3648 213.487C44.2591 213.875 45.3776 213.712 45.6882 212.613C46.2743 210.539 43.1016 208.571 41.3963 208.604" fill="#69A1AC"/>
<path fill-rule="evenodd" clip-rule="evenodd" d="M28.6909 218.538C26.0363 220.094 30.4043 223.428 31.9186 223.845C34.2047 224.474 38.8057 223.3 39.3474 220.507C39.5631 219.396 38.8678 218.389 37.6413 218.588C36.6314 218.752 35.9837 220.019 35.0483 220.473C33.7857 221.085 32.6632 221.043 31.5903 220.121C30.7163 219.371 30.2482 217.63 28.6909 218.538Z" fill="#69A1AC"/>
<path fill-rule="evenodd" clip-rule="evenodd" d="M30.6152 241.525C28.2434 242.03 25.8324 241.691 23.4492 242.167C21.019 242.652 19.5666 243.57 17.3088 242.645C17.2026 242.6 17.0967 242.555 16.9907 242.51C15.2432 241.758 13.4116 241.535 11.5824 242.735C10.4999 243.444 7.21385 245.9 7.60989 247.398C8.46818 250.646 12.1658 245.553 13.1087 245.056C14.9067 244.11 16.1394 245.319 17.9905 245.66C20.2077 246.069 21.9918 244.897 24.0804 244.431C26.5231 243.885 29.2712 243.695 31.7564 243.403C32.7382 243.288 36.4572 244.064 36.7929 242.842C37.3697 240.743 31.5474 241.327 30.6152 241.525" fill="#C1DEE2"/>
<path fill-rule="evenodd" clip-rule="evenodd" d="M47.7266 248.066C47.8816 248.183 47.7573 248.089 47.7266 248.066ZM54.3692 241.397C56.3997 241.191 62.8961 239.74 64.2299 241.838C65.0986 243.205 63.7199 248.249 62.4047 248.901C61.3535 249.422 58.9049 248.846 57.7514 248.805C55.6052 248.73 53.4544 248.696 51.3105 248.562C50.5915 248.518 48.278 248.65 47.7143 248.013C47.0487 247.262 47.0783 243.256 46.9217 242.263C48.7885 242.867 52.4173 241.595 54.3692 241.397M58.705 239.34C56.1045 239.453 53.5046 239.648 50.9235 239.997C49.4848 240.191 48.0271 240.708 46.6983 240.953C46.2699 241.032 45.5747 240.813 45.0495 241.067C43.5147 241.808 44.8587 246.821 45.2288 248.161C45.7973 250.218 47.228 250.552 49.2326 250.745C51.8731 251.001 54.5678 250.921 57.2166 250.888C59.7698 250.857 63.2126 251.423 64.6452 248.861C65.5713 247.205 66.5646 243.347 65.7731 241.501C64.7317 239.072 60.8435 239.25 58.705 239.34" fill="#C1DEE2"/>
<path fill-rule="evenodd" clip-rule="evenodd" d="M87.8263 249.443C87.6873 249.621 87.6873 249.621 87.8263 249.443ZM88.3961 248.756C88.3531 248.821 88.1535 249.032 88.3961 248.756ZM82.1946 248.567C83.3409 248.351 84.4876 248.138 85.6352 247.929C84.5485 249.45 83.4041 248.821 81.5477 248.689C81.7633 248.648 81.979 248.608 82.1946 248.567ZM76.7257 248.029C77.0163 247.932 77.3067 247.835 77.5973 247.737C77.5885 247.958 77.636 248.166 77.7398 248.358C77.2424 248.305 76.7455 248.247 76.2491 248.186C76.4078 248.134 76.5669 248.081 76.7257 248.029M74.1914 246.158C74.1751 245.758 74.7753 246.032 75.1193 246.006C74.4561 246.589 74.1468 246.64 74.1914 246.158ZM83.2549 241.631C83.3422 241.519 83.4578 241.525 83.6016 241.647C83.4447 241.7 82.8402 241.956 83.2549 241.631ZM89.1327 240.939C89.1482 240.939 89.4743 241.38 89.1327 240.939ZM88.9678 240.795C89.0532 240.86 89.0532 240.86 88.9678 240.795ZM88.2341 240.709C89.4359 240.912 89.3446 242.322 88.2341 240.709ZM74.1148 240.613C73.8706 240.816 73.9541 240.619 74.1148 240.613ZM78.7108 237.61C76.6705 237.729 72.9253 237.61 71.2213 238.697C68.9976 240.116 70.1676 245 70.3667 247.142C70.6608 250.307 72.15 251.208 75.1308 251.54C78.6881 251.937 82.343 252.011 85.9187 251.917C89.1388 251.832 90.9728 250.724 91.5626 247.334C91.7433 246.296 92.2018 244.692 92.1874 243.698C92.1775 243.009 91.8341 242.694 91.7041 242.108C90.9646 238.772 89.7278 238.376 86.3078 238.23C83.7906 238.123 81.1807 237.481 78.7108 237.61Z" fill="#89C5CC"/>
</g>
<g opacity="0.5">
<path fill-rule="evenodd" clip-rule="evenodd" d="M186.787 160.951C191.974 161.062 197.86 163.933 197.039 170.015C196.438 174.47 192.581 178.087 188.113 178.399C183.311 178.734 178.234 175.049 177.582 170.16C176.848 164.66 181.714 160.841 186.787 160.951M184.243 158.475C182.14 158.789 180.13 159.894 178.278 160.883C177.572 161.261 173.988 163.564 176.799 164.136C170.027 175.058 185.964 185.202 194.925 178.104C198.949 174.916 201.067 168.873 198.466 164.142C195.776 159.25 189.397 157.701 184.243 158.475" fill="#89C5CC"/>
<path fill-rule="evenodd" clip-rule="evenodd" d="M183.004 167.773C183.004 169.813 186.17 169.813 186.17 167.773C186.17 165.733 183.004 165.733 183.004 167.773Z" fill="#89C5CC"/>
<path fill-rule="evenodd" clip-rule="evenodd" d="M188.875 168.099C188.875 170.31 192.308 170.31 192.308 168.099C192.308 165.887 188.875 165.887 188.875 168.099Z" fill="#89C5CC"/>
<path fill-rule="evenodd" clip-rule="evenodd" d="M184.913 172.474C184.451 174.151 189.719 175.012 189.894 173.07C189.977 172.142 185.234 171.303 184.913 172.474Z" fill="#89C5CC"/>
<path fill-rule="evenodd" clip-rule="evenodd" d="M200.353 171.436C206.414 170.708 212.663 171.044 218.754 171.219C220.278 171.263 221.802 171.305 223.326 171.331C224.295 171.347 226.388 171.812 227.234 171.359C230.698 169.501 223.903 168.603 222.941 168.518C216.883 168.019 207.534 167.841 201.459 168.076C199.662 168.146 199.273 171.565 200.353 171.436" fill="#89C5CC"/>
<path fill-rule="evenodd" clip-rule="evenodd" d="M227.627 201.566C227.679 195.215 227.907 188.822 228.395 182.49C228.594 179.91 228.832 177.332 229.03 174.752C229.123 173.536 229.555 171.833 228.84 170.767C228.104 169.668 226.489 169.439 225.516 170.413C224.35 171.921 224.689 174.453 224.544 176.277C224.321 179.082 224.052 181.886 223.918 184.697C223.66 190.138 223.599 195.674 224.037 201.108C224.243 203.671 224.691 206.173 225.286 208.674C225.558 209.812 227.715 214.883 227.261 215.582C226.558 216.666 221.363 216.256 220.237 216.286C217.345 216.364 214.452 216.415 211.56 216.47C209.083 216.517 206.607 216.551 204.13 216.573C203.147 216.582 197.369 216.406 198.65 217.865C184.318 218.863 169.711 217.196 155.465 216.624C154.746 216.595 153.569 216.391 152.482 216.332C152.352 215.807 152.245 215.338 152.218 215.012C152.031 212.723 151.982 210.425 151.779 208.136C151.408 203.949 150.688 199.803 150.259 195.622C149.832 191.446 149.875 187.257 149.626 183.071C149.583 182.353 149.482 176.477 147.999 175.05C148.702 175.316 149.836 175.351 150.489 175.298C155.773 174.872 161.019 173.954 166.258 173.166C167.757 172.94 171.159 173.1 172.402 172.351C173.478 171.702 173.904 169.428 172.032 169.612C166.808 170.172 161.612 171.04 156.429 171.895C155.042 172.124 153.66 172.368 152.277 172.618C151.354 172.785 148.916 172.772 148.2 173.329C147.331 174.005 147.238 174.465 147.533 174.77C147.123 174.658 146.632 174.835 146.042 175.425C144.927 176.877 145.975 180.452 146.108 182.154C146.268 184.195 146.347 186.241 146.44 188.286C146.619 192.244 147.034 196.148 147.67 200.058C148.384 204.439 148.991 208.838 149.707 213.217C149.893 214.357 150.136 215.469 150.446 216.571C148.518 217.557 149.829 219.125 151.357 219.403C151.368 219.405 151.38 219.406 151.391 219.408C151.867 220.571 152.534 221.647 153.054 220.09C153.094 219.971 153.113 219.823 153.117 219.658C157.066 220.105 161.406 219.827 165.293 219.986C173.713 220.33 182.185 220.847 190.614 220.585C193.951 220.482 197.298 220.185 200.607 219.74C202.545 219.479 204.491 219.168 206.399 218.735C206.536 218.705 206.743 218.672 206.983 218.633C207.022 218.632 207.062 218.631 207.099 218.63C210.02 218.586 212.939 218.508 215.857 218.386C218.307 218.285 220.768 218.232 223.21 218.001C224.726 217.858 227.932 217.884 228.863 216.359C229.71 214.972 228.294 211.399 228.093 209.841C227.74 207.098 227.604 204.33 227.627 201.566" fill="#C1DEE2"/>
<path fill-rule="evenodd" clip-rule="evenodd" d="M198.026 183.229C195.692 183.429 193.533 184.525 191.178 184.538C189.201 184.549 187.254 183.959 185.266 184.046C182.935 184.148 181.652 185.656 179.609 186.16C177.983 186.562 176.958 185.317 175.528 184.766C173.722 184.071 172.388 184.43 170.84 185.481C169.703 186.254 167.05 187.989 167.071 189.552C167.132 194.287 172.656 187.746 173.77 187.667C175.249 187.562 176.902 189.248 178.477 189.344C180.558 189.472 181.893 188.13 183.809 187.641C185.748 187.146 187.843 187.752 189.786 187.94C192.003 188.155 193.943 187.66 196.088 187.131C198.167 186.618 199.938 186.646 202.05 187.076C203.475 187.367 207.026 189.057 207.65 186.884C208.499 183.925 199.657 183.09 198.026 183.229" fill="#89C5CC"/>
<path fill-rule="evenodd" clip-rule="evenodd" d="M198.738 192.259C193.956 192.723 189.144 193.13 184.34 193.261C182.259 193.317 174.26 192.426 174.969 195.07C175.577 197.337 186.463 195.909 188.68 195.737C191.127 195.546 193.571 195.281 196.007 194.972C196.87 194.863 198.955 194.976 199.564 194.252C200.144 193.562 199.858 192.147 198.738 192.259" fill="#89C5CC"/>
<path fill-rule="evenodd" clip-rule="evenodd" d="M165.744 204.3C165.635 204.346 165.635 204.346 165.744 204.3ZM166.753 204.287C167.945 204.249 167.689 203.62 168.879 203.948C169.427 204.099 169.484 203.875 169.909 204.399C170.739 205.422 169.957 207.649 169.139 208.474C166.111 211.526 162.476 204.422 166.753 204.287M166.753 201.292C158.462 201.571 161.931 214.378 169.147 211.764C172.127 210.684 174 205.82 172.247 203.086C171.394 201.757 170.307 201.52 168.879 201.428C168.547 201.407 168.13 201.889 167.923 201.867C167.431 201.815 167.477 201.265 166.753 201.292" fill="#89C5CC"/>
<path fill-rule="evenodd" clip-rule="evenodd" d="M186.579 204.739C186.431 204.694 189.197 205.498 188.894 205.183C189.54 205.854 188.672 207.443 187.941 207.72C186.172 208.391 185.179 205.641 186.579 204.739M187.806 201.266C185.21 201.634 183.207 202.715 182.852 205.602C182.525 208.267 184.325 210.965 187.165 211.017C193.354 211.13 193.543 200.466 187.806 201.266" fill="#89C5CC"/>
<path fill-rule="evenodd" clip-rule="evenodd" d="M216.066 204.857C216.428 209.588 211.522 205.258 216.066 204.857ZM213.96 199.795C213.531 200.528 213.897 201.307 214.544 201.733C208.757 202.956 210.068 211.665 215.957 210.378C218.952 209.724 219.503 206.575 219.056 203.975C218.844 202.738 215.763 196.713 213.96 199.795" fill="#89C5CC"/>
</g>
<path opacity="0.5" fill-rule="evenodd" clip-rule="evenodd" d="M227.652 204.34C225.927 204.646 221.848 206.552 221.884 208.598C221.939 211.793 225.406 208.303 226.177 207.834C230.319 205.313 235.683 208.58 239.996 209.275C241.974 209.594 245.842 210.182 247.589 208.857C250.695 206.5 243.511 207.09 242.596 206.996C237.624 206.482 232.677 203.442 227.652 204.34" fill="#C1DEE2"/>
<g opacity="0.5">
<path fill-rule="evenodd" clip-rule="evenodd" d="M309.139 181.879C309.138 185.147 308.972 188.484 309.575 191.713C309.757 192.691 309.901 194.563 310.933 195.071C311.969 195.58 312.973 195.008 313.23 193.946C313.531 192.71 312.872 190.861 312.805 189.564C312.714 187.792 312.708 186.017 312.707 184.243C312.706 182.962 313.128 180.901 311.615 180.242C310.491 179.751 309.139 180.663 309.139 181.879" fill="#C1DEE2"/>
<path fill-rule="evenodd" clip-rule="evenodd" d="M360.812 176.708C349.983 177.795 338.998 178.021 328.129 178.588C323.105 178.85 317.034 178.516 312.301 180.46C311.422 180.821 308.274 182.831 310.83 183.65C311.627 183.905 312.436 183.047 313.09 182.759C314.179 182.281 315.44 182.133 316.602 181.946C326.477 180.361 336.807 180.637 346.784 179.896C349.341 179.706 351.898 179.51 354.45 179.259C356.272 179.08 360.103 177.766 361.785 178.438C364.659 179.586 364.592 187.046 364.649 189.612C364.678 190.939 363.391 195.702 365.951 195.219C368 194.832 367.258 189.884 367.098 188.531C366.679 184.983 365.964 176.186 360.812 176.708" fill="#C1DEE2"/>
<path fill-rule="evenodd" clip-rule="evenodd" d="M364.806 195.047C355.4 195.896 345.777 195.063 336.332 195.397C331.381 195.572 326.436 195.851 321.484 196.014C319.343 196.085 317.199 196.088 315.057 196.104C314.032 196.11 309.369 196.732 312.254 198.763C313.531 199.663 317.602 198.938 319.067 198.921C321.269 198.895 323.469 198.803 325.669 198.717C330.764 198.518 335.857 198.242 340.955 198.104C345.832 197.972 350.711 197.944 355.588 197.812C358.015 197.746 360.474 197.671 362.879 197.317C363.422 197.237 365.185 197.173 365.561 196.568C365.918 195.996 365.667 194.964 364.806 195.047" fill="#89C5CC"/>
<path fill-rule="evenodd" clip-rule="evenodd" d="M318.577 187.985C318.526 188.105 318.526 188.105 318.577 187.985ZM322.65 186.747C322.799 186.81 322.799 186.81 322.65 186.747ZM322.46 186.713C324.655 188.95 321.279 191.621 319.223 189.437C317.04 187.12 321.046 186.72 322.46 186.713ZM320.131 183.327C312.57 184.673 315.247 194.75 322.309 193.294C325.41 192.654 327.183 189.531 326.116 186.531C325.699 185.359 324.79 184.072 323.524 183.703C322.893 183.519 322.335 183.808 321.734 183.741C321.161 183.676 320.843 183.199 320.131 183.327" fill="#C1DEE2"/>
<path fill-rule="evenodd" clip-rule="evenodd" d="M349.066 186.164C344.507 186.178 339.946 186.372 335.387 186.458C333.989 186.484 330.395 185.859 330.389 188.063C330.383 190.419 334.387 189.549 335.719 189.517C340.241 189.409 344.774 189.211 349.278 188.78C350.416 188.671 354.355 188.859 354.351 187.312C354.346 185.673 349.985 186.164 349.066 186.164Z" fill="#C1DEE2"/>
<path fill-rule="evenodd" clip-rule="evenodd" d="M359.956 201.538C348.68 201.841 337.42 201.946 326.152 202.523C321.938 202.739 317.729 202.9 313.508 202.9C312.696 202.9 311.059 202.585 310.294 203.097C308.217 204.485 310.582 205.677 311.935 205.752C321.191 206.266 330.582 204.987 339.833 204.699C345.248 204.53 350.665 204.48 356.078 204.204C357.555 204.129 359.032 204.042 360.506 203.927C361.353 203.862 363.596 204.042 364.281 203.546C367.273 201.38 360.965 201.511 359.956 201.538" fill="#89C5CC"/>
<path fill-rule="evenodd" clip-rule="evenodd" d="M308.218 207.052C308.112 209.975 308.101 212.848 308.483 215.756C308.634 216.9 308.703 218.198 310.044 218.489C311.262 218.753 311.88 217.832 312.132 216.81C312.748 214.316 312.206 210.726 312.199 208.135C312.195 206.854 312.194 205.421 310.611 205.131C309.403 204.91 308.264 205.783 308.218 207.052" fill="#89C5CC"/>
<path fill-rule="evenodd" clip-rule="evenodd" d="M371.912 214.101C353.658 215.063 335.428 215.902 317.161 216.675C315.736 216.735 304.669 216.614 308.538 220.474C309.733 221.665 312.812 220.858 314.358 220.783C316.68 220.668 319.004 220.581 321.326 220.463C330.534 219.994 339.766 219.868 348.967 219.342C354.031 219.052 359.083 218.599 364.12 218.01C366.516 217.729 369.49 217.758 371.734 216.819C372.888 216.336 374.134 213.983 371.912 214.101" fill="#89C5CC"/>
<path fill-rule="evenodd" clip-rule="evenodd" d="M361.414 199.27C360.026 200.652 360.74 203.38 360.844 205.089C360.988 207.44 361.163 209.793 361.457 212.132C361.648 213.651 361.547 216.016 362.357 217.328C363.306 218.865 365.396 218.695 366.254 217.21C367.013 215.897 366.629 213.134 366.609 211.679C366.582 209.667 366.457 207.652 366.337 205.644C366.237 203.965 366.618 201.275 365.694 199.839C364.756 198.379 362.715 197.976 361.414 199.27" fill="#89C5CC"/>
<path fill-rule="evenodd" clip-rule="evenodd" d="M319.693 209.999C319.53 210.124 319.53 210.124 319.693 209.999ZM322.935 209.592C325.96 210.201 321.068 213.733 319.522 211.309C319.281 210.93 319.155 210.464 319.543 210.135C319.897 209.835 320.119 210.367 320.453 210.224C321.029 209.977 322.321 209.569 322.935 209.592ZM322.518 206.692C320.452 206.856 317.612 206.983 316.59 209.054C315.216 211.835 317.565 214.558 320.283 214.982C322.898 215.389 326.802 213.94 327.011 210.891C327.18 208.432 324.841 206.504 322.518 206.692Z" fill="#89C5CC"/>
<path fill-rule="evenodd" clip-rule="evenodd" d="M339.761 208.163C337.623 208.197 333.42 207.565 331.557 208.607C329.714 209.639 330.536 211.475 332.218 211.914C333.329 212.204 335.146 211.736 336.303 211.689C337.825 211.627 339.349 211.614 340.872 211.593C343.433 211.558 345.994 211.587 348.556 211.587C351.173 211.587 353.834 211.659 356.446 211.466C359.751 211.223 359.662 208.748 356.43 208.439C350.939 207.913 345.27 208.076 339.761 208.163" fill="#89C5CC"/>
<path fill-rule="evenodd" clip-rule="evenodd" d="M334.298 235.879C334.298 237.055 335.342 235.879 335.334 235.879C335.342 235.879 334.298 234.703 334.298 235.879Z" fill="#89C5CC"/>
<path fill-rule="evenodd" clip-rule="evenodd" d="M310.702 226.415C310.77 229.833 310.814 233.254 310.96 236.669C311.006 237.749 310.697 239.857 312.006 240.408C313.463 241.021 313.915 239.493 314.083 238.458C314.615 235.179 314.094 231.435 314.043 228.118C314.026 227.004 314.267 225.453 313.001 224.897C311.969 224.444 310.682 225.285 310.702 226.415" fill="#89C5CC"/>
<path fill-rule="evenodd" clip-rule="evenodd" d="M366.904 226.467C366.99 226.671 366.99 226.671 366.904 226.467ZM367.026 226.432C367.096 226.461 367.379 226.58 367.026 226.432ZM339.416 223.67C334.17 223.752 328.92 223.814 323.676 224.039C321.439 224.135 319.175 224.212 316.945 224.423C315.366 224.573 311.442 224.635 310.417 225.926C308.303 228.59 312.786 227.864 313.752 227.647C315.509 227.253 317.303 227.127 319.098 227.032C322.994 226.827 326.891 226.717 330.791 226.639C341.368 226.426 351.953 226.458 362.532 226.41C363.556 226.406 365.407 225.994 366.353 226.408C367.301 226.823 367.247 227.844 367.346 229.03C367.477 230.607 366.436 233.612 367.229 234.939C368.458 236.997 370.246 235.249 370.52 233.749C370.897 231.676 370.299 229.187 369.713 227.206C368.886 224.41 367.738 224.299 365.034 224.08C361.875 223.825 358.727 223.67 355.558 223.641C350.178 223.592 344.795 223.586 339.416 223.67Z" fill="#89C5CC"/>
<path fill-rule="evenodd" clip-rule="evenodd" d="M360.167 237.799C348.787 239.121 337.084 238.342 325.643 238.389C322.861 238.4 320.076 238.422 317.297 238.557C315.829 238.628 312.349 238.224 311.343 239.356C309.223 241.743 313.042 242.091 314.436 241.992C317.255 241.791 320.081 241.7 322.907 241.678C332.861 241.601 342.871 242.066 352.817 241.574C356.984 241.369 361.058 240.656 365.148 239.86C366.054 239.683 372.256 238.504 368.719 237.091C366.629 236.255 362.363 237.543 360.167 237.799Z" fill="#89C5CC"/>
<path fill-rule="evenodd" clip-rule="evenodd" d="M326.943 233.428C326.863 233.53 326.863 233.53 326.943 233.428ZM326.866 233.41C326.839 233.483 326.756 233.664 326.866 233.41ZM326.148 232.484C326.165 232.505 326.233 232.592 326.148 232.484ZM326.121 232.477C326.395 232.804 326.579 233.169 326.674 233.572C324.316 234.21 323.408 232.303 326.121 232.477ZM325.972 232.388C325.972 232.388 326.304 232.528 325.972 232.388ZM322.098 229.546C320.572 231.446 319.313 233.661 321.215 235.832C322.916 237.772 326.339 238.023 328.498 236.727C330.721 235.392 330.529 232.581 328.978 230.747C327.979 229.566 327.17 229.599 325.72 229.406C324.734 229.275 322.936 228.507 322.098 229.546Z" fill="#89C5CC"/>
<path fill-rule="evenodd" clip-rule="evenodd" d="M337.872 233.064C337.872 235.594 348.798 234.505 350.742 234.503C352.37 234.5 362.215 235.398 361.509 232.794C360.928 230.655 351.23 231.718 349.165 231.715C347.38 231.713 337.872 230.487 337.872 233.064" fill="#89C5CC"/>
</g>
<g opacity="0.5">
<path fill-rule="evenodd" clip-rule="evenodd" d="M195.231 256.773C200.703 257.567 206.395 260.141 206.347 266.51C206.307 271.865 201.815 277.565 196.048 277.245C190.858 276.957 185.97 271.281 185.321 266.417C184.984 263.897 185.614 261.184 187.096 259.111C189.038 256.395 192.121 256.399 195.231 256.773M192.646 253.311C188.689 253.332 185.793 254.764 183.344 257.786C182.465 258.869 181.443 260.036 180.775 261.263C180.15 262.41 180.26 265.325 182.403 263.959C181.875 269.603 185.174 275.081 189.916 277.974C195.071 281.118 200.897 280.505 205.188 276.098C209.115 272.064 210.497 265.25 207.624 260.261C204.752 255.275 198.099 253.257 192.646 253.311" fill="#89C5CC"/>
<path fill-rule="evenodd" clip-rule="evenodd" d="M204.514 251.798C201.98 253.656 199.667 256.101 197.745 258.581C195.867 261.006 194.625 264.033 192.369 266.147C191.23 264.906 189.895 261.554 187.622 262.884C185.736 263.987 186.95 265.885 187.869 267.131C190.241 270.348 192.875 271.643 195.917 268.464C198.68 265.577 200.249 261.726 202.833 258.673C203.966 257.334 205.716 256.004 206.619 254.525C207.437 253.185 206.425 250.394 204.514 251.798" fill="#89C5CC"/>
</g>
<g opacity="0.5">
<path fill-rule="evenodd" clip-rule="evenodd" d="M274.166 67.1875C274.252 67.1745 274.335 67.1653 274.415 67.1603C276.528 67.0262 278.668 67.0817 280.785 67.0326C285.12 66.9322 289.625 67.1691 293.934 66.6615C294.81 66.548 295.117 67.6716 294.724 68.254C294.283 68.9079 292.871 68.8745 292.218 68.9713C290.305 69.2545 288.367 69.3533 286.437 69.4389C284.41 69.5287 282.381 69.5958 280.353 69.6523C278.596 69.7008 274.698 70.4356 273.072 69.7002C271.806 69.1272 271.835 68.4909 272.352 67.998C272.039 67.3091 272.091 66.181 272.023 65.6396C271.742 63.3709 271.573 61.1312 271.569 58.843C271.561 54.3609 271.57 49.7059 272.809 45.3675C272.313 45.15 272.013 44.8295 272.015 44.3675C272.021 41.6237 282.087 42.2789 284.128 42.2245C286.637 42.159 289.146 42.1505 291.655 42.164C293.313 42.1728 295.556 41.815 297.207 42.1987C300.422 42.945 300.218 48.4563 300.284 51.1213C300.402 55.9015 300.333 60.9268 299.945 65.6958C299.811 67.3425 298.613 69.4295 297.247 67.1597C296.485 65.8941 296.824 62.9377 296.823 61.5394C296.82 56.5684 297.599 51.4471 296.854 46.5017C296.609 44.8804 296.663 44.7709 295.014 44.805C293.705 44.8322 292.397 44.8756 291.089 44.9031C288.424 44.959 285.759 44.9955 283.096 45.093C282.084 45.1303 278.45 45.7653 275.615 45.7629C275.616 45.7855 275.619 45.8082 275.619 45.8313C275.658 47.7478 274.719 50.0739 274.591 52.0903C274.283 56.9401 274.65 61.9033 274.196 66.7286C274.182 66.8749 274.175 67.0307 274.166 67.1875Z" fill="#89C5CC"/>
<path fill-rule="evenodd" clip-rule="evenodd" d="M312.325 68.589C311.995 68.2526 311.698 67.7586 311.508 67.1423C310.824 64.9298 310.76 62.5422 310.709 60.2479C310.601 55.3443 310.654 50.4321 310.625 45.5268C310.18 44.9294 310.444 44.2462 310.999 43.7695C312.499 42.4823 316.819 42.8089 318.723 42.7082C321.462 42.5633 324.203 42.53 326.946 42.5198C329.85 42.5052 332.759 42.5574 335.662 42.6467C336.738 42.6797 344.227 42.8681 340.88 44.6836C340.688 44.7876 340.472 44.8744 340.237 44.9465C340.376 45.7714 340.393 46.6232 340.371 47.0335C340.228 49.644 340.167 52.2594 340.051 54.8714C339.922 57.7867 339.799 60.7019 339.699 63.6186C339.645 65.1605 340.173 68.7457 338.953 69.8589C338.13 70.6093 337.568 70.459 337.19 69.9493C334.269 70.7973 327.531 70.2508 326.304 70.2514C324.105 70.2522 312.161 71.6659 312.142 69.1217C312.14 68.9243 312.204 68.7474 312.325 68.589V68.589ZM314.265 67.6891C317.597 66.9777 323.809 67.453 325.116 67.4482C327.551 67.4386 329.986 67.4724 332.418 67.5697C333.177 67.6 335.031 67.454 336.496 67.6164C336.483 67.4838 336.474 67.3626 336.469 67.2579C336.336 64.6324 336.48 61.9795 336.565 59.354C336.65 56.7077 336.781 54.0635 336.883 51.4177C336.935 50.0569 336.591 47.2162 336.964 45.2577C335.195 45.2241 333.341 45.0104 332.148 45.0103C329.348 45.01 326.55 44.9783 323.751 45.0337C320.727 45.0937 317.671 45.1291 314.668 45.528C314.504 45.5499 314.306 45.5921 314.087 45.6433C314.544 47.5552 313.989 50.6299 313.987 52.4012C313.982 57.3645 314.165 62.3008 314.276 67.238C314.279 67.3997 314.276 67.55 314.265 67.6891V67.6891Z" fill="#89C5CC"/>
<path fill-rule="evenodd" clip-rule="evenodd" d="M284.215 69.5493C282.415 70.6009 283.386 74.8077 284.01 76.2628C285.035 78.6552 287.115 80.5272 289.36 81.7691C293.897 84.2789 300.437 83.6123 303.869 87.9638C303.904 88.0088 305.091 89.183 305.36 87.6625C305.582 86.4145 303.368 84.5086 302.51 83.883C300.07 82.1042 296.94 81.5306 294.118 80.642C291.108 79.6943 287.805 77.9472 286.543 74.8442C286.096 73.7452 286.948 67.945 284.215 69.5493" fill="#C1DEE2"/>
<path fill-rule="evenodd" clip-rule="evenodd" d="M325.369 71.5718C323.72 72.0266 324.811 74.2967 324.808 75.4333C324.805 76.8513 324.352 78.3354 323.478 79.467C321.261 82.3368 316.922 82.7668 313.669 83.5896C311.306 84.1875 305.654 85.4694 305.433 88.6643C305.186 92.2322 310.176 87.8902 310.597 87.7123C315.261 86.0014 321.295 85.6711 324.895 81.9052C326.381 80.3507 327.259 78.276 327.399 76.1346C327.477 74.9289 327.491 70.9923 325.369 71.5718" fill="#C1DEE2"/>
<path fill-rule="evenodd" clip-rule="evenodd" d="M303.274 91.1223C310.14 89.3134 316.536 94.1245 317.346 101.046C318.2 108.35 312.695 114.23 305.435 114.552C299.049 114.836 291.323 110.263 291.282 103.219C291.244 96.6176 297.561 92.6245 303.274 91.1223V91.1223ZM306.578 96.0458C305.404 96.7303 305.189 94.9545 304.357 94.72C303.523 94.485 302.181 95.363 301.486 95.8748C300.306 96.7442 297.035 101.804 295.45 99.0564C290.64 107.362 302.632 113.578 309.451 110.435C316.94 106.983 315.482 94.3622 306.62 94.2964C306.992 94.8013 307.327 95.607 306.578 96.0458V96.0458Z" fill="#89C5CC"/>
<path fill-rule="evenodd" clip-rule="evenodd" d="M300.334 101.008C300.334 102.523 302.727 102.523 302.727 101.008C302.727 99.5101 300.334 99.4459 300.334 101.008Z" fill="#89C5CC"/>
<path fill-rule="evenodd" clip-rule="evenodd" d="M304.544 100.724C304.544 102.58 307.477 102.58 307.477 100.724C307.477 98.8894 304.544 98.8111 304.544 100.724Z" fill="#89C5CC"/>
<path fill-rule="evenodd" clip-rule="evenodd" d="M301.532 105.048C299.134 106.459 305.992 109.261 306.263 106.397C306.379 105.162 305.183 105.495 304.385 105.404C303.622 105.317 302.256 104.627 301.532 105.048Z" fill="#89C5CC"/>
<path fill-rule="evenodd" clip-rule="evenodd" d="M300.493 115.056C300.598 118.659 300.547 122.26 301.231 125.813C301.361 126.487 301.451 128.935 301.984 129.436C303.296 130.669 303.317 128.306 303.368 127.4C303.55 124.156 303.21 120.811 303.135 117.561C303.118 116.861 303.304 115.412 302.974 114.735C302.45 113.66 300.442 113.34 300.493 115.056" fill="#C1DEE2"/>
<path fill-rule="evenodd" clip-rule="evenodd" d="M297.928 112.134C292.671 118.035 285.432 117.6 278.138 118.117C274.285 118.39 270.388 118.951 267.288 121.443C265.845 122.603 264.602 124.055 263.766 125.71C263.401 126.434 261.669 130.609 264.271 129.619C265.193 129.267 266.102 126.506 266.699 125.69C267.835 124.134 269.29 122.85 271.035 122.015C274.4 120.405 278.419 120.433 282.069 120.228C285.883 120.015 289.978 119.815 293.485 118.156C295.134 117.376 296.682 116.403 298.009 115.149C298.484 114.7 299.501 113.939 299.577 113.253C299.663 112.47 298.91 111.035 297.928 112.134" fill="#C1DEE2"/>
<path fill-rule="evenodd" clip-rule="evenodd" d="M271.388 130.245C266.45 130.41 261.518 130.61 256.586 130.922C255.575 130.986 252.206 130.782 253.064 132.853C253.752 134.513 257.861 133.415 259.221 133.334C264.359 133.029 269.519 132.923 274.647 132.461C275.799 132.357 281.006 132.399 278.856 130.357C277.833 129.385 272.801 130.197 271.388 130.245" fill="#89C5CC"/>
<path fill-rule="evenodd" clip-rule="evenodd" d="M249.928 132.628C248.371 134.672 249.087 139.641 249.204 142.099C249.318 144.48 248.856 148.835 251.964 149.204C250.977 149.075 252.714 149.264 252.996 149.279C253.628 149.313 254.262 149.324 254.894 149.331C256.354 149.347 257.815 149.328 259.275 149.298C262.582 149.232 265.897 149.136 269.2 148.953C270.588 148.876 278.12 148.941 278.418 147.498C278.799 145.655 271.578 146.698 270.285 146.757C267.137 146.901 263.984 146.932 260.833 146.973C259.271 146.993 257.708 147.009 256.146 146.978C255.501 146.966 252.947 147.231 252.555 146.8C252.221 146.434 252.482 143.067 252.475 142.552C252.452 140.872 252.454 139.189 252.513 137.511C252.554 136.381 253.165 134.231 252.667 133.17C252.183 132.138 250.771 131.786 249.928 132.628" fill="#89C5CC"/>
<path fill-rule="evenodd" clip-rule="evenodd" d="M275.357 132.723C275.447 136.463 275.475 140.279 276.359 143.937C276.653 145.154 277.065 147.664 278.287 148.294C279.571 148.956 280.679 148.012 280.763 146.74C280.869 145.141 280.012 143.042 279.837 141.402C279.632 139.488 279.513 137.572 279.442 135.648C279.389 134.202 279.829 132.033 278.45 131.1C277.211 130.262 275.317 131.106 275.357 132.723" fill="#89C5CC"/>
<path fill-rule="evenodd" clip-rule="evenodd" d="M285.183 131.809C283.647 133.339 284.333 138.183 284.525 140.149C284.666 141.589 286.242 148.671 288.603 144.978C289.648 143.344 288.321 139.024 288.33 137.119C288.336 135.906 288.766 134.372 288.558 133.206C288.284 131.665 286.576 130.418 285.183 131.809" fill="#89C5CC"/>
<path fill-rule="evenodd" clip-rule="evenodd" d="M321.311 144.451C321.649 144.817 321.799 145.339 321.579 145.849C321.051 147.075 319.108 146.811 318.053 146.898C314.531 147.192 310.992 147.388 307.458 147.419C304.043 147.449 300.626 147.361 297.212 147.395C294.367 147.423 291.403 147.999 288.584 147.884C287.408 147.835 286.151 147.45 286.449 145.929C286.714 144.58 288.071 144.569 289.178 144.457C292.513 144.117 295.849 143.997 299.2 144.009C306.241 144.033 313.275 143.997 320.316 143.96C320.605 143.984 320.878 144.095 321.102 144.263C320.734 143.816 320.911 143.154 320.842 142.508C320.657 140.766 320.538 139.055 320.207 137.313C319.943 135.92 319.744 133.554 318.454 132.678C317.045 131.721 313.916 132.038 312.235 131.994C307.709 131.877 303.158 132.199 298.654 132.608C296.599 132.795 294.52 132.937 292.489 133.306C291.358 133.512 288.04 135.172 287.136 134.15C284.961 131.69 294.519 130.68 295.817 130.546C300.43 130.07 305.049 129.713 309.688 129.669C312.82 129.645 318.181 129.378 320.484 131.948C321.867 133.491 322.353 136.033 322.892 137.959C323.307 139.438 324.431 142.105 323.632 143.632C323.271 144.323 322.689 144.913 321.806 144.668C321.599 144.611 321.437 144.538 321.311 144.451V144.451Z" fill="#89C5CC"/>
<path fill-rule="evenodd" clip-rule="evenodd" d="M344.897 124.947C345.097 125.205 345.097 125.205 344.897 124.947ZM313.678 109.707C310.876 111.354 316.062 116.186 317.383 116.934C320.356 118.615 324.44 118.869 327.76 119.342C331.96 119.941 336.532 120.161 340.569 121.538C342.29 122.125 343.383 123.04 344.509 124.447C345.08 125.159 346.454 128.232 347.706 127.504C350.225 126.04 343.436 119.893 341.94 119.232C338.539 117.73 334.518 117.309 330.882 116.726C327.501 116.183 324.047 115.78 320.749 114.823C318.936 114.297 317.647 113.449 316.602 111.825C315.95 110.813 315.416 108.69 313.678 109.707" fill="#C1DEE2"/>
<path fill-rule="evenodd" clip-rule="evenodd" d="M328.71 145.285C327.872 143.678 327.486 140.592 327.412 139.983C327.089 137.357 327.065 134.761 327.109 132.119C327.135 130.669 328.796 129.977 329.872 130.791C331.31 130.188 333.745 130.098 335.053 129.965C337.203 129.748 339.371 129.668 341.527 129.539C346.56 129.238 351.588 128.695 356.63 128.583C358.139 128.552 360.16 128.416 361.367 129.529C362.741 130.798 363.015 133.944 363.426 135.639C363.873 137.48 364.407 139.353 364.594 141.241C364.638 141.684 364.757 142.443 364.703 143.127C365.332 143.213 365.707 143.822 365.643 144.487C365.526 145.722 363.815 145.89 362.814 146.086C359.485 146.736 355.927 146.588 352.552 146.683C345.492 146.882 337.942 148.022 330.909 147.343C329.705 147.227 328.412 146.802 328.71 145.285V145.285ZM331.251 143.832C331.531 143.829 331.807 143.835 332.065 143.83C335.616 143.768 339.164 143.66 342.712 143.524C346.331 143.385 349.95 143.23 353.572 143.189C356.451 143.156 359.415 143.404 362.314 143.292C361.691 141.66 361.786 139.092 361.453 137.402C361.123 135.724 360.998 133.734 360.323 132.159C359.564 130.386 358.904 130.796 356.926 130.93C354.893 131.068 352.863 131.262 350.832 131.429C346.367 131.796 341.899 132.029 337.431 132.34C335.113 132.501 332.896 133.163 330.63 133.422C330.596 134.231 330.482 135.048 330.494 135.638C330.532 137.379 330.704 139.108 330.855 140.842C330.917 141.547 331.208 142.764 331.251 143.832V143.832Z" fill="#89C5CC"/>
</g>
</svg>
